<?xml version="1.0" encoding="utf-8"?>
<!-- Generator: Adobe Illustrator 19.2.1, SVG Export Plug-In . SVG Version: 6.00 Build 0)  -->
<svg version="1.1" id="layer" xmlns="http://www.w3.org/2000/svg" xmlns:xlink="http://www.w3.org/1999/xlink" x="0px" y="0px"
	 viewBox="0 0 652 652" style="enable-background:new 0 0 652 652;" xml:space="preserve">
<path d="M222.5,348.4v-20.5h3.3l8.9,15.8h0.1v-15.8h2.1v20.5H235l-10.4-18.3h-0.1v18.3H222.5z M287.8,327.8v20.5h12.9v-1.9h-10.6
	v-7.8h7.1v-1.9h-7.1v-6.9h10v-1.9H287.8z M362,329.8v-1.9h-14.5v1.9h6.1v18.6h2.3v-18.6H362z M413.1,348.4h2l4-16.6h0.1l4.2,16.6h2
	l4.9-20.5h-2.2l-3.8,16.4h-0.1l-4.1-16.4h-2l-4,16.4h0l-3.8-16.4h-2.2L413.1,348.4z M485.2,327.6c-5,0-8,3.7-8,10.5
	c0,6.8,3,10.5,8,10.5c5,0,8-3.7,8-10.5C493.2,331.3,490.3,327.6,485.2,327.6 M485.2,346.7c-3.6,0-5.7-2.8-5.7-8.6
	c0-5.8,2.1-8.6,5.7-8.6c3.6,0,5.7,2.8,5.7,8.6C491,343.9,488.8,346.7,485.2,346.7 M544.6,348.4V339h4.8l4.2,9.3h2.5l-4.3-9.8
	c2.4-0.8,4.1-2.4,4.1-5.3c0-3.4-2.4-5.4-6.8-5.4h-6.6v20.5H544.6z M544.6,329.8h4.1c2.9,0,4.8,0.8,4.8,3.6c0,2.6-1.7,3.7-4.8,3.7
	h-4.1V329.8z M608.7,341.5l3.3-4l6.1,10.9h2.6l-7.1-12.8l6.4-7.7h-2.7l-8.5,10.7h-0.1v-10.7h-2.3v20.5h2.3V341.5z M222.5,268.5v42.4
	H240c9.3,0,14.8-4.6,14.8-12.6c0-5.5-3.1-9.4-8.8-11.1c3.8-2,5.8-4.9,5.8-8.8c0-6.7-4.5-10-13.7-10H222.5z M232.2,284.3v-7.8h4.1
	c4.5,0,6.1,1,6.1,3.8c0,2.9-1.7,4-5.8,4H232.2z M232.2,302.3v-9.9h5.3c5,0,7.1,1.4,7.1,5c0,3.4-2,4.9-6.7,4.9H232.2z M273.5,268.5
	h-9.7v42.4H289v-8.6h-15.5V268.5z M311.2,268.5l-15.5,42.4h10.1l4.6-13h13l4.5,13H338l-15.8-42.4H311.2z M320.8,289.8h-7.9l1-2.9
	c1.2-3.6,1.3-3.9,2.1-6.6l0.4-1.6c0.1-0.2,0.2-0.7,0.4-1.4c0.4,1.8,0.8,3.1,1.5,5.2l0.8,2.4c0.4,1.1,0.6,2,0.7,2.1L320.8,289.8z
	 M373.3,269.1c-4.1-0.9-6.5-1.3-9.3-1.3c-12.6,0-22.2,9.4-22.2,21.7c0,12.9,9.4,22.3,22.5,22.3c3.2,0,5.9-0.5,9-1.6V301
	c-2.9,1.5-5.5,2.2-8.5,2.2c-7.6,0-13-5.7-13-13.5c0-7.9,5.4-13.4,13.4-13.4c2.8,0,4.8,0.6,8.1,2.2V269.1z M385.7,268.5v42.4h9.7v-21
	l14.2,21h11.5l-16.3-23.4l16.1-19h-11.3l-14.2,17.3v-17.3H385.7z M465.6,268.5h-9.7v14.9h-16v-14.9h-9.7v42.4h9.7v-19h16v19h9.7
	V268.5z M488.7,268.5l-15.5,42.4h10.1l4.6-13h13l4.5,13h10.2l-15.8-42.4H488.7z M498.3,289.8h-7.9l1-2.9c1.2-3.6,1.3-3.9,2.1-6.6
	l0.4-1.6c0.1-0.2,0.2-0.7,0.4-1.4c0.4,1.8,0.8,3.1,1.5,5.2l0.8,2.4c0.4,1.1,0.6,2,0.7,2.1L498.3,289.8z M517.3,268.5l12.6,42.4h10.5
	l4.7-19.2c0.5-2.2,1.2-5.8,1.6-9l0.2-1.5c0.4,3.7,0.8,6,1.8,10.5l4.6,19.2h10.5l12.8-42.4h-10.2l-5.6,19.3c-0.7,2.5-1.6,6.7-2,9.6
	l-0.2-1.2c-0.4-2.6-0.8-4.9-1.7-8.4l-4.7-19.3h-10.7l-4.6,18.8c-0.9,3.8-1.5,7-1.8,10.1c-0.3-2.4-1.1-5.9-1.7-8.1l-0.6-2l-5.3-18.8
	H517.3z M585.7,268.5v42.4h9.7v-21l14.3,21h11.4l-16.3-23.4l16.1-19h-11.2l-14.3,17.3v-17.3H585.7z"/>
<path d="M92.3,337.5l0.1,0.4c24-7.9,60.6-7.4,74.4,6.4c-8.5,12.5-49.8,33.8-93,45.7l0.4-0.1c-1.3,0.4-2.7,0.7-4,1.1
	c-0.6,0.3,0,0.6,0.3,0.6c23.9-3.3,95-19.5,118.1-53.7C173.2,322.2,130.8,317.1,92.3,337.5"/>
<path d="M43.1,268.1c44.2-23.5,92.9-17.7,110.6,0.4c-26.5,39.4-104.9,63.1-132,68.6c-0.3,0-1-0.3-0.4-0.7c1.5-0.5,3-1,4.5-1.5
	l-0.5,0.2c48.6-16.9,93.5-44.8,103.3-59.2c-15.9-15.9-58-16.4-85.5-7.3L43.1,268.1 M205,303.6c-13.7-14-49.9-17.4-82-0.3l0,0
	l-0.3,0.6l0.5,0.2c20.4-6.7,51-6.2,62.7,5.2c-7.5,10.7-40.4,31.1-76,43.4c-0.5,0.2-3,1-3,1l-0.4,0.5l0,0.1l0.7,0.5
	c20.6-4.2,78.1-21.5,97.7-50.8l0.1-0.2L205,303.6z"/>
</svg>
