<?xml version="1.0" standalone="no"?>
<!DOCTYPE svg PUBLIC "-//W3C//DTD SVG 1.1//EN" "http://www.w3.org/Graphics/SVG/1.1/DTD/svg11.dtd">
<svg width="164px" height="112px" version="1.1" xmlns="http://www.w3.org/2000/svg" xmlns:xlink="http://www.w3.org/1999/xlink" xml:space="preserve" style="fill-rule:evenodd;clip-rule:evenodd;stroke-linejoin:round;stroke-miterlimit:1.41421;">
    <g>
        <path d="M96.2893,9.72343C96.2893,9.72343 96.1928,2.61705 96.1351,1.36857C96.1351,1.36857 96.0386,0.10083 96.8677,0.0625322C97.6969,0.0240175 113.296,0.0625322 113.296,0.0625322C113.296,0.0625322 114.202,-0.0142807 114.241,1.00376C114.279,2.0218 114.626,24.6279 114.626,40.1469C114.626,55.9732 114.298,75.9675 114.241,77.6961C114.241,77.6961 114.298,78.791 113.277,78.791L97.08,78.791C97.08,78.791 96.1318,78.7524 96.1318,77.7154C96.1318,76.6783 96.3282,69.4566 96.2895,68.9955C96.2508,68.5346 96.4437,67.9006 97.4464,67.9006L104.311,67.9006C104.311,67.9006 105.198,68.035 105.198,67.0172C105.198,65.9991 105.379,53.9246 105.379,40.1469C105.379,28.0084 105.198,12.8927 105.198,12.0668C105.198,11.2409 104.966,10.9144 104.291,10.9144L97.3306,10.9144Z" style="fill:rgb(209,211,211);"/>
        <path d="M67.5317,9.72343C67.5317,9.72343 67.6282,2.61705 67.6859,1.36857C67.6859,1.36857 67.7824,0.10083 66.9533,0.0625322C66.1241,0.0240175 50.5253,0.0625322 50.5253,0.0625322C50.5253,0.0625322 49.619,-0.0142807 49.5803,1.00376C49.5417,2.0218 49.1948,24.6279 49.1948,40.1469C49.1948,55.9732 49.5226,75.9675 49.5803,77.6961C49.5803,77.6961 49.5226,78.791 50.5444,78.791L66.741,78.791C66.741,78.791 67.6892,78.7524 67.6892,77.7154C67.6892,76.6783 67.4928,69.4566 67.5315,68.9955C67.5702,68.5346 67.3773,67.9006 66.3746,67.9006L59.5103,67.9006C59.5103,67.9006 58.6234,68.035 58.6234,67.0172C58.6234,65.9991 58.442,53.9246 58.442,40.1469C58.442,28.0084 58.6234,12.8927 58.6234,12.0668C58.6234,11.2409 58.8547,10.9144 59.5296,10.9144L66.4904,10.9144Z" style="fill:rgb(209,211,211);"/>
        <g>
            <path d="M89.7775,28.8814L74.0435,28.8814C71.9224,28.8814 71.4212,29.8034 71.4597,31.7624C71.4981,33.7215 71.7297,38.3413 71.7297,38.3413C72.501,51.2865 74.0822,60.8131 74.5062,63.6558C74.9304,66.4983 74.9689,66.729 75.5473,67.4588C76.1258,68.1886 77.5911,68.1118 77.5911,68.1118L86.2295,68.1118C86.2295,68.1118 87.6948,68.1886 88.2733,67.4588C88.8517,66.729 88.8904,66.4985 89.3144,63.6558C89.7386,60.8133 91.3198,51.2868 92.0909,38.3413C92.0909,38.3413 92.3222,33.7217 92.3609,31.7624C92.3998,29.8034 91.8984,28.8814 89.7775,28.8814Z" style="fill:rgb(0,72,118);"/>
            <path d="M81.9101,11.4678C85.9992,11.4678 89.3142,14.7699 89.3142,18.8432C89.3142,22.9165 85.9992,26.2185 81.9101,26.2185C77.8209,26.2185 74.506,22.9165 74.506,18.8432C74.506,14.7699 77.8209,11.4678 81.9101,11.4678Z" style="fill:rgb(0,72,118);"/>
        </g>
        <path d="M8.50259,111.107C3.09841,111.107 0.0384477,107.518 0.0384477,102.627C0.0384477,97.268 3.98661,94.1711 8.77411,94.1711C11.3899,94.1711 13.4132,94.8102 14.351,95.2036L14.351,98.2759C13.4626,97.8334 11.4885,97.096 9.09472,97.096C6.1336,97.096 3.46833,98.7675 3.46833,102.676C3.46833,106.289 5.83753,108.157 9.06996,108.157C11.4142,108.157 13.7091,107.272 14.5482,106.879L14.5482,109.853C13.2406,110.517 11.0443,111.107 8.50259,111.107Z" style="fill:rgb(0,72,118);"/>
        <path d="M22.0464,111.082C18.0241,111.082 15.4577,108.575 15.4577,104.716C15.4577,101.078 17.9501,98.2514 22.0957,98.2514C26.2661,98.2514 28.7091,100.906 28.7091,104.642C28.7091,108.378 26.0934,111.082 22.0464,111.082ZM22.0959,100.857C19.7515,100.857 18.7153,102.676 18.7153,104.716C18.7153,106.879 19.8751,108.452 22.0959,108.452C24.3415,108.452 25.4272,106.682 25.4272,104.667C25.4272,102.676 24.4894,100.857 22.0959,100.857Z" style="fill:rgb(0,72,118);"/>
        <path d="M33.4701,111.058C31.8416,111.058 30.8546,110.591 30.3609,109.411C30.0893,108.772 30.04,107.887 30.04,106.732L30.04,92.696L33.1986,92.696L33.1986,106.682C33.1986,107.199 33.2234,107.666 33.2974,107.911C33.4456,108.256 33.6923,108.403 34.334,108.403C34.6055,108.403 35.025,108.305 35.4199,108.157L35.4199,110.738C34.8766,110.935 34.2599,111.058 33.4701,111.058Z" style="fill:rgb(0,72,118);"/>
        <path d="M40.2063,111.058C38.5776,111.058 37.5905,110.591 37.0968,109.411C36.8253,108.772 36.776,107.887 36.776,106.732L36.776,92.696L39.9345,92.696L39.9345,106.682C39.9345,107.199 39.9593,107.666 40.0332,107.911C40.1813,108.256 40.4281,108.403 41.0697,108.403C41.3413,108.403 41.7607,108.305 42.1556,108.157L42.1556,110.738C41.6128,110.935 40.9959,111.058 40.2063,111.058Z" style="fill:rgb(0,72,118);"/>
        <path d="M49.5089,111.082C45.3137,111.082 42.9448,108.55 42.9448,104.667C42.9448,101.275 45.1656,98.2757 49.5089,98.2757C53.2844,98.2757 55.3573,100.439 55.3573,104.347C55.3573,104.618 55.3573,105.183 55.3325,105.453L46.2267,105.453C46.2515,107.174 47.658,108.477 49.9036,108.477C52.2973,108.477 53.457,107.838 54.7897,107.1L54.7897,109.755C53.457,110.443 51.8529,111.082 49.5089,111.082ZM52.3464,103.389C52.3464,101.865 51.2608,100.734 49.4839,100.734C47.7318,100.734 46.4735,101.742 46.3008,103.389Z" style="fill:rgb(0,72,118);"/>
        <path d="M63.1535,111.082C58.8845,111.082 56.8116,108.452 56.8116,104.691C56.8116,100.562 59.6493,98.2514 63.4495,98.2514C64.8562,98.2514 65.8431,98.4481 66.9537,98.9153L66.9537,101.668C65.9667,101.176 65.1275,100.881 63.7951,100.881C61.2039,100.881 60.0935,102.676 60.0935,104.667C60.0935,107.002 61.3275,108.453 63.6963,108.453C64.8067,108.453 66.0405,108.133 67.1509,107.395L67.1509,110.075C65.9174,110.763 64.6833,111.082 63.1535,111.082Z" style="fill:rgb(0,72,118);"/>
        <path d="M74.5503,111.107C72.5762,111.107 71.3917,110.37 70.7746,109.116C70.3306,108.256 70.2563,106.953 70.2563,105.453L70.2563,101.226L68.3563,101.226L68.3563,98.5708L70.2563,98.5708L70.3056,95.4001L73.4149,94.5395L73.4149,98.5706L76.919,98.5706L76.919,101.226L73.4149,101.226L73.4149,105.429C73.4149,106.215 73.4396,106.928 73.6123,107.395C73.8098,108.059 74.3526,108.403 75.2903,108.403C76.0306,108.403 76.8945,108.206 77.5112,107.936L77.5112,110.542C76.7218,110.861 75.6114,111.107 74.5503,111.107Z" style="fill:rgb(0,72,118);"/>
        <path d="M78.9665,94.81C78.9665,93.8021 79.7068,93.0154 80.7186,93.0154C81.7057,93.0154 82.4955,93.8268 82.4955,94.81C82.4955,95.8179 81.7059,96.58 80.7186,96.58C79.7068,96.58 78.9665,95.8177 78.9665,94.81ZM79.1392,98.5708L82.3224,98.5708L82.3224,110.812L79.1392,110.812Z" style="fill:rgb(0,72,118);"/>
        <path d="M89.0338,110.812L83.7775,98.5706L87.3064,98.5706C89.6752,104.347 90.2923,105.969 90.7118,107.223C91.131,105.969 91.6988,104.421 94.0676,98.5706L97.3745,98.5706L92.1185,110.812Z" style="fill:rgb(0,72,118);"/>
        <path d="M103.625,111.082C99.4296,111.082 97.0608,108.55 97.0608,104.667C97.0608,101.275 99.2817,98.2757 103.625,98.2757C107.4,98.2757 109.473,100.439 109.473,104.347C109.473,104.618 109.473,105.183 109.448,105.453L100.342,105.453C100.367,107.174 101.774,108.477 104.019,108.477C106.413,108.477 107.573,107.838 108.905,107.1L108.905,109.755C107.573,110.443 105.969,111.082 103.625,111.082ZM106.462,103.389C106.462,101.865 105.377,100.734 103.6,100.734C101.848,100.734 100.59,101.742 100.417,103.389Z" style="fill:rgb(0,72,118);"/>
        <rect x="118.253" y="94.466" width="3.35581" height="16.346" style="fill:rgb(0,72,118);"/>
        <path d="M132.694,110.812L132.694,108.919C131.954,110.173 130.399,111.082 128.523,111.082C124.822,111.082 123.391,108.33 123.391,105.011C123.391,101.422 125.266,98.3499 129.979,98.3499C130.966,98.3499 131.805,98.4972 132.57,98.7428L132.57,92.6963L135.803,92.6963L135.803,110.812L132.694,110.812ZM130.3,100.955C127.98,100.955 126.673,102.282 126.673,104.765C126.673,106.928 127.561,108.452 129.658,108.452C130.596,108.452 131.534,107.936 132.003,107.297C132.323,106.83 132.57,106.191 132.57,105.429L132.57,101.398C131.929,101.078 131.139,100.955 130.3,100.955Z" style="fill:rgb(0,72,118);"/>
        <path d="M144.049,111.082C139.854,111.082 137.485,108.55 137.485,104.667C137.485,101.275 139.706,98.2757 144.049,98.2757C147.825,98.2757 149.898,100.439 149.898,104.347C149.898,104.618 149.898,105.183 149.873,105.453L140.767,105.453C140.792,107.174 142.198,108.477 144.444,108.477C146.838,108.477 147.997,107.838 149.33,107.1L149.33,109.755C147.997,110.443 146.393,111.082 144.049,111.082ZM146.887,103.389C146.887,101.865 145.801,100.734 144.024,100.734C142.272,100.734 141.013,101.742 140.841,103.389Z" style="fill:rgb(0,72,118);"/>
        <path d="M161.593,111.058C160.705,111.058 159.618,110.616 159.421,109.264C158.73,110.124 157.521,111.058 155.374,111.058C152.684,111.058 151.327,109.362 151.327,107.518C151.327,106.117 151.994,105.035 153.252,104.421C154.56,103.757 156.682,103.462 159.076,103.413L159.076,103.069C159.076,102.577 159.027,102.086 158.878,101.668C158.607,101.078 157.867,100.906 156.855,100.906C155.671,100.906 153.869,101.348 152.413,102.086L152.413,99.4309C153.795,98.7671 155.967,98.2755 157.423,98.2755C160.236,98.2755 161.42,99.1853 161.914,100.488C162.234,101.324 162.284,102.504 162.284,103.512L162.284,107.543C162.284,107.838 162.333,108.133 162.407,108.256C162.506,108.428 162.679,108.526 162.95,108.526C163.246,108.526 163.641,108.452 163.962,108.33L163.962,110.591C163.246,110.91 162.259,111.058 161.593,111.058ZM158.78,107.42C159.002,107.125 159.076,106.609 159.076,106.093L159.076,105.404C157.447,105.429 156.09,105.503 155.251,105.921C154.609,106.24 154.314,106.658 154.314,107.322C154.314,108.379 155.202,108.674 156.214,108.674C157.521,108.674 158.335,108.01 158.78,107.42Z" style="fill:rgb(0,72,118);"/>
    </g>
</svg>
