<svg xmlns="http://www.w3.org/2000/svg" viewBox="0 0 800 522.2">
  <defs/>
  <path fill="#c1529a" d="M759.9 163c-13.6-4.2-28.1 3.3-32.4 16.9-12.1 39.3-49 65.5-90.1 63.9-47.6-1.7-86.5-40.7-87.9-88.3-1.5-51.4 39.9-93.7 90.9-93.7 18.9 0 37.4 5.9 52.8 16.9l.2-.2c16.1 11.5 28 27.8 33.9 46.7 3.5 11.2 13.9 19.2 25.6 18.7 14.3-.5 25.5-12.6 25-26.9-.1-2.3-.5-4.5-1.1-6.7C758.5 50.6 703.2 9.9 640.7 10.2h-.4l-7.4.2-2.8.2-5.1.4-4.7.6-4.5.7-4.7.9-1.8.4c-34.6 7.9-65.1 28.3-85.5 57.4-7.7-11-17-20.9-27.4-29.3l-.7-.5-2-1.6c-1.3-1-2.6-2-4-2.9l-2.2-1.7c-1.9-1.2-3.8-2.5-5.8-3.7l-2.4-1.5-4.6-2.6-1.8-1-6.3-3.2-.8-.4-6.5-2.7-2.2-.9-6.4-2.2-.5-.2c-2.5-.8-5.1-1.6-7.7-2.2l-1.2-.4-7-1.5-1.1-.3c-2.6-.5-5.3-.9-8.2-1.2h-.6l-7.3-.7H415c-2.7-.2-5.3-.3-8.1-.3h-.2c-2.8 0-5.6.1-8.3.3h-.8c-2.8.2-5.6.4-8.4.8h-.4c-20.9 2.6-40.9 9.8-58.6 21.1 0 0 0 .1.1.1-15.8 10.1-29.6 23.2-40.3 38.6C245 6.7 156.2-9.1 91.6 36c-3.3 2.3-6.4 4.7-9.5 7.2V37c0-13.8-10.3-25.8-24.1-26.7-14.2-1-26.5 9.8-27.5 24 0 .6-.1 1.2-.1 1.8v232.7c0 13.8 10.3 25.8 24.1 26.7 14.3.9 26.6-9.9 27.5-24.2 0-.5.1-1.1.1-1.6v-115c0-49.5 38.8-91.5 88.3-93 50.4-1.4 92.3 38.3 93.7 88.6v4.8c.1 0 .1 0 .1-.1.8 41.6 19.6 80.9 51.6 107.6 52.8 43.9 129.4 43.8 182.1-.1V296c0 6.9-.8 13.7-2.3 20.4-1 4.3-2.4 8.6-3.9 12.7-.7 1.7-1.3 3.2-2.1 4.8l-.3.7-1.9 3.8-.5 1-2.1 3.7-.4.7c-.8 1.4-1.7 2.9-2.7 4.2-.2.2-.3.4-.4.6l-.3.3-2.5 3.3-1.1 1.3-1.8 2.2-1.2 1.3-1.8 2-1.3 1.3-1.9 1.8-1.3 1.2-2 1.8-1.4 1.1-2.1 1.8-1.4 1c-.7.6-1.5 1.2-2.3 1.7l-1.3.9-2.5 1.6-1.3.8-2.6 1.6-1.1.6-2.9 1.5-1.1.5-3.2 1.4-1 .4-3.4 1.4-.7.3-3.8 1.2-.4.2-4.2 1.1h-.1c-2.3.6-4.6 1.1-6.9 1.5l-1.1.2-4.2.6H416l-2.1.2c-2.3.2-4.6.4-6.8.4-2.4 0-4.6-.2-6.8-.4l-2.1-.2h-1.1l-3.2-.4-1.2-.2c-2.6-.4-5.3-1-7.9-1.7l-4.2-1.1-.4-.2-3.8-1.2-.7-.4-3.4-1.3-1-.4-3.1-1.4-1.1-.5-2.9-1.5-1.2-.6-2.6-1.6-1.3-.8-2.5-1.6-1.3-.9-2.3-1.7-1.4-1-2.1-1.8-1.4-1.1-1.9-1.8-1.4-1.2-1.8-1.8-1.4-1.3-1.8-1.9-1.3-1.4-1.8-2.2-1.1-1.3-2.4-3.2-.4-.4c-.1-.2-.2-.4-.4-.6-.9-1.3-1.8-2.7-2.7-4.2l-.7-.8-2.1-3.6c0-.1 0-.1-.1-.2l-2.4-4.6-.3-.7c-.7-1.5-1.4-3.1-2-4.7h-.1c-4-10.6-6.2-21.8-6.2-33.1v-.6c0-7-3.3-13.6-8.9-17.9-13.7-10.6-25.6-23.4-35.3-37.7-1.3-1.9-3.8-2.4-5.7-1.1-1.1.8-1.8 2-1.8 3.4V296c0 10.8 1.2 21.5 3.6 32 13.9 61.5 66.8 106.4 129.7 110.3h2.5c2.3.2 4.6.3 6.9.3 2.3 0 4.6-.1 6.8-.3h2.5c63-3.9 115.8-48.9 129.7-110.4 2.4-10.5 3.6-21.2 3.6-32v-33.3c60.5 50.4 150.5 42.1 200.8-18.4 11.9-14.4 20.9-30.9 26.5-48.7 4.3-13.6-3.3-28.1-16.9-32.3.2-.2.2-.2.1-.2zM407 243.9c-50.3 0-91-40.8-91.1-91 0-31.8 16.6-61.3 43.8-77.8.1-.1.2-.1.2-.2 2.2-1.3 4.5-2.5 6.8-3.7l1.1-.5 3.2-1.4 1.8-.8 5-1.8 2.4-.8 2.9-.8 2.6-.7 2.6-.6 4.9-.9 2.1-.3 3.8-.4 2.1-.2 5.4-.2h.4c50 0 90.7 40.5 90.9 90.5h.2v.5c-.2 50.3-40.9 91-91.1 91.1z"/>
  <linearGradient id="a" x1="64.01" x2="792.69" y1="329.287" y2="161.829" gradientTransform="matrix(1 0 0 -1 0 448)" gradientUnits="userSpaceOnUse">
    <stop offset=".42" stop-color="#e7a071" stop-opacity="0"/>
    <stop offset=".47" stop-color="#e7a071" stop-opacity=".07"/>
    <stop offset=".56" stop-color="#e7a071" stop-opacity=".25"/>
    <stop offset=".68" stop-color="#e7a071" stop-opacity=".54"/>
    <stop offset=".83" stop-color="#e7a071" stop-opacity=".94"/>
    <stop offset=".86" stop-color="#e7a071"/>
  </linearGradient>
  <path fill="url(#a)" d="M759.9 163c-13.6-4.2-28.1 3.3-32.4 16.9-12.1 39.3-49 65.5-90.1 63.9-47.6-1.7-86.5-40.7-87.9-88.3-1.5-51.4 39.9-93.7 90.9-93.7 18.9 0 37.4 5.9 52.8 16.9l.2-.2c16.1 11.5 28 27.8 33.9 46.7 3.5 11.2 13.9 19.2 25.6 18.7 14.3-.5 25.5-12.6 25-26.9-.1-2.3-.5-4.5-1.1-6.7C758.5 50.6 703.2 9.9 640.7 10.2h-.4l-7.4.2-2.8.2-5.1.4-4.7.6-4.5.7-4.7.9-1.8.4c-34.6 7.9-65.1 28.3-85.5 57.4-7.7-11-17-20.9-27.4-29.3l-.7-.5-2-1.6c-1.3-1-2.6-2-4-2.9l-2.2-1.7c-1.9-1.2-3.8-2.5-5.8-3.7l-2.4-1.5-4.6-2.6-1.8-1-6.3-3.2-.8-.4-6.5-2.7-2.2-.9-6.4-2.2-.5-.2c-2.5-.8-5.1-1.6-7.7-2.2l-1.2-.4-7-1.5-1.1-.3c-2.6-.5-5.3-.9-8.2-1.2h-.6l-7.3-.7H415c-2.7-.2-5.3-.3-8.1-.3h-.2c-2.8 0-5.6.1-8.3.3h-.8c-2.8.2-5.6.4-8.4.8h-.4c-20.9 2.6-40.9 9.8-58.6 21.1 0 0 0 .1.1.1-15.8 10.1-29.6 23.2-40.3 38.6C245 6.7 156.2-9.1 91.6 36c-3.3 2.3-6.4 4.7-9.5 7.2V37c0-13.8-10.3-25.8-24.1-26.7-14.2-1-26.5 9.8-27.5 24 0 .6-.1 1.2-.1 1.8v232.7c0 13.8 10.3 25.8 24.1 26.7 14.3.9 26.6-9.9 27.5-24.2 0-.5.1-1.1.1-1.6v-115c0-49.5 38.8-91.5 88.3-93 50.4-1.4 92.3 38.3 93.7 88.6v4.8c.1 0 .1 0 .1-.1.8 41.6 19.6 80.9 51.6 107.6 52.8 43.9 129.4 43.8 182.1-.1V296c0 6.9-.8 13.7-2.3 20.4-1 4.3-2.4 8.6-3.9 12.7-.7 1.7-1.3 3.2-2.1 4.8l-.3.7-1.9 3.8-.5 1-2.1 3.7-.4.7c-.8 1.4-1.7 2.9-2.7 4.2-.2.2-.3.4-.4.6l-.3.3-2.5 3.3-1.1 1.3-1.8 2.2-1.2 1.3-1.8 2-1.3 1.3-1.9 1.8-1.3 1.2-2 1.8-1.4 1.1-2.1 1.8-1.4 1c-.7.6-1.5 1.2-2.3 1.7l-1.3.9-2.5 1.6-1.3.8-2.6 1.6-1.1.6-2.9 1.5-1.1.5-3.2 1.4-1 .4-3.4 1.4-.7.3-3.8 1.2-.4.2-4.2 1.1h-.1c-2.3.6-4.6 1.1-6.9 1.5l-1.1.2-4.2.6H416l-2.1.2c-2.3.2-4.6.4-6.8.4-2.4 0-4.6-.2-6.8-.4l-2.1-.2h-1.1l-3.2-.4-1.2-.2c-2.6-.4-5.3-1-7.9-1.7l-4.2-1.1-.4-.2-3.8-1.2-.7-.4-3.4-1.3-1-.4-3.1-1.4-1.1-.5-2.9-1.5-1.2-.6-2.6-1.6-1.3-.8-2.5-1.6-1.3-.9-2.3-1.7-1.4-1-2.1-1.8-1.4-1.1-1.9-1.8-1.4-1.2-1.8-1.8-1.4-1.3-1.8-1.9-1.3-1.4-1.8-2.2-1.1-1.3-2.4-3.2-.4-.4c-.1-.2-.2-.4-.4-.6-.9-1.3-1.8-2.7-2.7-4.2l-.7-.8-2.1-3.6c0-.1 0-.1-.1-.2l-2.4-4.6-.3-.7c-.7-1.5-1.4-3.1-2-4.7h-.1c-4-10.6-6.2-21.8-6.2-33.1v-.6c0-7-3.3-13.6-8.9-17.9-13.7-10.6-25.6-23.4-35.3-37.7-1.3-1.9-3.8-2.4-5.7-1.1-1.1.8-1.8 2-1.8 3.4V296c0 10.8 1.2 21.5 3.6 32 13.9 61.5 66.8 106.4 129.7 110.3h2.5c2.3.2 4.6.3 6.9.3 2.3 0 4.6-.1 6.8-.3h2.5c63-3.9 115.8-48.9 129.7-110.4 2.4-10.5 3.6-21.2 3.6-32v-33.3c60.5 50.4 150.5 42.1 200.8-18.4 11.9-14.4 20.9-30.9 26.5-48.7 4.3-13.6-3.3-28.1-16.9-32.3.2-.2.2-.2.1-.2zM407 243.9c-50.3 0-91-40.8-91.1-91 0-31.8 16.6-61.3 43.8-77.8.1-.1.2-.1.2-.2 2.2-1.3 4.5-2.5 6.8-3.7l1.1-.5 3.2-1.4 1.8-.8 5-1.8 2.4-.8 2.9-.8 2.6-.7 2.6-.6 4.9-.9 2.1-.3 3.8-.4 2.1-.2 5.4-.2h.4c50 0 90.7 40.5 90.9 90.5h.2v.5c-.2 50.3-40.9 91-91.1 91.1z"/>
  <linearGradient id="b" x1="51.519" x2="755.021" y1="393.583" y2="140.4" gradientTransform="matrix(1 0 0 -1 0 448)" gradientUnits="userSpaceOnUse">
    <stop offset=".18" stop-color="#5277b7"/>
    <stop offset=".22" stop-color="#5277b7" stop-opacity=".98"/>
    <stop offset=".27" stop-color="#5277b7" stop-opacity=".9"/>
    <stop offset=".31" stop-color="#5277b7" stop-opacity=".78"/>
    <stop offset=".36" stop-color="#5277b7" stop-opacity=".61"/>
    <stop offset=".41" stop-color="#5277b7" stop-opacity=".39"/>
    <stop offset=".46" stop-color="#5277b7" stop-opacity=".13"/>
    <stop offset=".49" stop-color="#5277b7" stop-opacity="0"/>
  </linearGradient>
  <path fill="url(#b)" d="M759.9 163c-13.6-4.2-28.1 3.3-32.4 16.9-12.1 39.3-49 65.5-90.1 63.9-47.6-1.7-86.5-40.7-87.9-88.3-1.5-51.4 39.9-93.7 90.9-93.7 18.9 0 37.4 5.9 52.8 16.9l.2-.2c16.1 11.5 28 27.8 33.9 46.7 3.5 11.2 13.9 19.2 25.6 18.7 14.3-.5 25.5-12.6 25-26.9-.1-2.3-.5-4.5-1.1-6.7C758.5 50.6 703.2 9.9 640.7 10.2h-.4l-7.4.2-2.8.2-5.1.4-4.7.6-4.5.7-4.7.9-1.8.4c-34.6 7.9-65.1 28.3-85.5 57.4-7.7-11-17-20.9-27.4-29.3l-.7-.5-2-1.6c-1.3-1-2.6-2-4-2.9l-2.2-1.7c-1.9-1.2-3.8-2.5-5.8-3.7l-2.4-1.5-4.6-2.6-1.8-1-6.3-3.2-.8-.4-6.5-2.7-2.2-.9-6.4-2.2-.5-.2c-2.5-.8-5.1-1.6-7.7-2.2l-1.2-.4-7-1.5-1.1-.3c-2.6-.5-5.3-.9-8.2-1.2h-.6l-7.3-.7H415c-2.7-.2-5.3-.3-8.1-.3h-.2c-2.8 0-5.6.1-8.3.3h-.8c-2.8.2-5.6.4-8.4.8h-.4c-20.9 2.6-40.9 9.8-58.6 21.1 0 0 0 .1.1.1-15.8 10.1-29.6 23.2-40.3 38.6C245 6.7 156.2-9.1 91.6 36c-3.3 2.3-6.4 4.7-9.5 7.2V37c0-13.8-10.3-25.8-24.1-26.7-14.2-1-26.5 9.8-27.5 24 0 .6-.1 1.2-.1 1.8v232.7c0 13.8 10.3 25.8 24.1 26.7 14.3.9 26.6-9.9 27.5-24.2 0-.5.1-1.1.1-1.6v-115c0-49.5 38.8-91.5 88.3-93 50.4-1.4 92.3 38.3 93.7 88.6v4.8c.1 0 .1 0 .1-.1.8 41.6 19.6 80.9 51.6 107.6 52.8 43.9 129.4 43.8 182.1-.1V296c0 6.9-.8 13.7-2.3 20.4-1 4.3-2.4 8.6-3.9 12.7-.7 1.7-1.3 3.2-2.1 4.8l-.3.7-1.9 3.8-.5 1-2.1 3.7-.4.7c-.8 1.4-1.7 2.9-2.7 4.2-.2.2-.3.4-.4.6l-.3.3-2.5 3.3-1.1 1.3-1.8 2.2-1.2 1.3-1.8 2-1.3 1.3-1.9 1.8-1.3 1.2-2 1.8-1.4 1.1-2.1 1.8-1.4 1c-.7.6-1.5 1.2-2.3 1.7l-1.3.9-2.5 1.6-1.3.8-2.6 1.6-1.1.6-2.9 1.5-1.1.5-3.2 1.4-1 .4-3.4 1.4-.7.3-3.8 1.2-.4.2-4.2 1.1h-.1c-2.3.6-4.6 1.1-6.9 1.5l-1.1.2-4.2.6H416l-2.1.2c-2.3.2-4.6.4-6.8.4-2.4 0-4.6-.2-6.8-.4l-2.1-.2h-1.1l-3.2-.4-1.2-.2c-2.6-.4-5.3-1-7.9-1.7l-4.2-1.1-.4-.2-3.8-1.2-.7-.4-3.4-1.3-1-.4-3.1-1.4-1.1-.5-2.9-1.5-1.2-.6-2.6-1.6-1.3-.8-2.5-1.6-1.3-.9-2.3-1.7-1.4-1-2.1-1.8-1.4-1.1-1.9-1.8-1.4-1.2-1.8-1.8-1.4-1.3-1.8-1.9-1.3-1.4-1.8-2.2-1.1-1.3-2.4-3.2-.4-.4c-.1-.2-.2-.4-.4-.6-.9-1.3-1.8-2.7-2.7-4.2l-.7-.8-2.1-3.6c0-.1 0-.1-.1-.2l-2.4-4.6-.3-.7c-.7-1.5-1.4-3.1-2-4.7h-.1c-4-10.6-6.2-21.8-6.2-33.1v-.6c0-7-3.3-13.6-8.9-17.9-13.7-10.6-25.6-23.4-35.3-37.7-1.3-1.9-3.8-2.4-5.7-1.1-1.1.8-1.8 2-1.8 3.4V296c0 10.8 1.2 21.5 3.6 32 13.9 61.5 66.8 106.4 129.7 110.3h2.5c2.3.2 4.6.3 6.9.3 2.3 0 4.6-.1 6.8-.3h2.5c63-3.9 115.8-48.9 129.7-110.4 2.4-10.5 3.6-21.2 3.6-32v-33.3c60.5 50.4 150.5 42.1 200.8-18.4 11.9-14.4 20.9-30.9 26.5-48.7 4.3-13.6-3.3-28.1-16.9-32.3.2-.2.2-.2.1-.2zM407 243.9c-50.3 0-91-40.8-91.1-91 0-31.8 16.6-61.3 43.8-77.8.1-.1.2-.1.2-.2 2.2-1.3 4.5-2.5 6.8-3.7l1.1-.5 3.2-1.4 1.8-.8 5-1.8 2.4-.8 2.9-.8 2.6-.7 2.6-.6 4.9-.9 2.1-.3 3.8-.4 2.1-.2 5.4-.2h.4c50 0 90.7 40.5 90.9 90.5h.2v.5c-.2 50.3-40.9 91-91.1 91.1z"/>
  <linearGradient id="c" x1="565.466" x2="502.236" y1="224.19" y2="289.288" gradientTransform="matrix(1 0 0 -1 0 448)" gradientUnits="userSpaceOnUse">
    <stop offset="0" stop-color="#503b69" stop-opacity="0"/>
    <stop offset=".67" stop-color="#503b69" stop-opacity=".71"/>
    <stop offset="1" stop-color="#503b69"/>
  </linearGradient>
  <path fill="url(#c)" d="M549.6 152.8v109.4c7.6-15.6 17.2-30.2 28.6-43.2-18.2-17.2-28.6-41.1-28.6-66.2z"/>
  <path fill="#fff" d="M43.8 477.2L30.9 514h6.4l3.1-9h13.8l2.9 9h6.4l-12.9-36.8h-6.8zm-1.7 22.5l5-15.7h.1l5 15.7H42.1zm61.7-4.5c1.5-.4 2.9-1.4 3.7-2.7 1.1-1.5 1.6-3.4 1.6-5.3v-.2c0-3.3-1.1-5.8-3.2-7.4-2.1-1.6-5.3-2.4-9.5-2.4H83.3V514h13.4c8.8 0 13.2-3.6 13.2-10.6v-.2c.1-1.9-.5-3.8-1.7-5.3a8.42 8.42 0 00-4.4-2.7zm-14.3-12.5h6.9c1.7-.1 3.3.2 4.8 1.1 1 .6 1.5 1.8 1.5 3.6 0 3.5-1.9 5.2-5.8 5.2h-7.5l.1-9.9zm14.1 20.5c0 3.6-2.3 5.4-6.8 5.4h-7.3v-10.9H97c1.7-.1 3.4.3 4.9 1.2 1.1 1 1.8 2.5 1.7 4v.3zm12.1-26h6V514h-6v-36.8zm24.5 9.4c-3.7 0-6.6.7-8.4 2.2-1.9 1.6-3 3.9-3.1 6.4h5.9c.1-2.5 2-3.9 5.6-3.9 1.8 0 3.1.4 3.8 1.1.8.9 1.2 2 1.1 3.2v2l-5.3.4-3.9.5-3.2.8c-1 .4-2 .9-2.8 1.6-.8.6-1.4 1.4-1.8 2.4-.4 1.1-.7 2.3-.6 3.5 0 2.6.8 4.6 2.4 5.9 1.9 1.4 4.2 2.1 6.5 1.9 1.9 0 3.7-.4 5.4-1.2 1.5-.7 2.7-1.8 3.5-3.2h.1l.2 3.9h5.4v-18.4c-.1-6.1-3.7-9.1-10.8-9.1zm4.8 17.1c0 1.8-.8 3.4-2.1 4.6-1.6 1.3-3.6 1.9-5.6 1.8-1.1 0-2.2-.3-3.1-1-.7-.6-1.1-1.6-1.1-2.5v-.2c0-1.6.5-2.6 1.7-3.2 1.8-.8 3.7-1.2 5.6-1.3l4.6-.4v2.2zm29.4 1.6h6c0 2.7-1.2 5.2-3.2 7-1.8 1.6-4.6 2.5-8.2 2.5s-7.3-1.2-9.5-3.7-3.2-6-3.2-10.4c0-4.6 1.1-8 3.2-10.4s5.3-3.6 9.6-3.6 6.1.8 7.9 2.5c1.9 1.7 3 4.2 3 6.8h-6c-.2-2.8-1.8-4.3-4.9-4.3s-4 .8-5.1 2.3-1.7 3.8-1.7 6.8c0 6.1 2.2 9 6.7 9 1.4.1 2.8-.3 3.9-1.1.9-1 1.4-2.1 1.5-3.4zm24.3-7.7l11.1 16.5h-6.3l-8.8-12.6-3.1 3v9.6h-5.9v-36.8h5.9v20.1l10.6-10.2h7.2l-10.7 10.4zm36.4-8.7c1.4 1.6 2.1 4.2 2.1 7.6V514h-6v-17.5c.1-1.3-.2-2.6-1-3.7-.7-.8-1.8-1.1-3.3-1.1-1.9-.1-3.9.6-5.3 1.9-1.2 1.4-1.8 3.2-1.8 5V514H214v-36.8h5.9v13.9h.1c.7-1.4 1.8-2.5 3.2-3.3 1.7-.9 3.5-1.4 5.4-1.3 3 0 5.2.8 6.5 2.4zm20.2-2.3c-3.7 0-6.5.7-8.4 2.2-1.9 1.6-3 3.9-3 6.4h5.8c.2-2.5 2-3.9 5.6-3.9 1.8 0 3.1.4 3.8 1.1.8.9 1.2 2 1.1 3.2v2l-5.3.4-3.8.5c-1.1.2-2.2.4-3.3.8-1 .4-2 .9-2.8 1.6-.7.6-1.3 1.5-1.7 2.4-.5 1.1-.8 2.3-.7 3.5 0 2.6.8 4.6 2.5 5.9 1.8 1.4 4.1 2.1 6.4 1.9 1.9 0 3.8-.4 5.5-1.2 1.5-.7 2.7-1.8 3.5-3.2h.1l.2 3.9h5.3v-18.4c-.1-6.1-3.7-9.1-10.8-9.1zm4.9 17.1c0 1.8-.8 3.5-2.2 4.6-1.6 1.3-3.6 2-5.6 1.8-1.1.1-2.1-.3-3-1-.8-.6-1.2-1.6-1.1-2.5v-.2c-.1-1.3.6-2.6 1.8-3.2 1.7-.8 3.6-1.2 5.5-1.3l4.6-.4v2.2zm42.4-16.6h6.1l-7.9 26.9h-6.2l-5.2-19.1h-.1l-5.1 19.1H278l-8-26.9h6.1l5.3 19.1h.1l5.1-19.1h5.5l5.2 19.1h.1l5.2-19.1zm23.6 10.5l11.1 16.5H331l-8.8-12.6-3.1 3v9.6h-6v-36.8h6v20.1l10.6-10.2h7.2l-10.7 10.4zm53.1-20.4h6.2V514h-5.8l-16-25.8h-.1V514h-6.2v-36.8h5.8l16 25.8h.1v-25.8zm25.1 9.3c-4.1 0-7.2 1.2-9.5 3.7-2.2 2.4-3.2 5.9-3.2 10.3 0 4.7 1.1 8.2 3.3 10.5s5.8 3.6 10.7 3.6c3.1 0 6.1-.6 8.9-1.8v-4.7c-2.7 1-5.6 1.6-8.5 1.7-3 0-5.2-.5-6.6-1.7-1.5-1.4-2.2-3.4-2.1-5.4h18.2c.2-1.2.3-2.3.4-3.5.1-8.5-3.8-12.7-11.6-12.7zm-6.9 12c.2-2.5.8-4.4 1.8-5.5 1.1-1.2 2.8-1.8 5.1-1.8s3.8.5 4.6 1.8 1.3 3 1.4 5.5h-12.9zm34.9 10.9c1.3 0 2.6-.1 3.9-.4v4.7c-1.7.5-3.5.8-5.3.8-2.6 0-4.6-.5-5.8-1.7-1.2-1.1-1.8-3.2-1.8-6V492h-3.7v-4.9h3.9l.4-7.6h5.3v7.6h6.8v4.9h-6.8v14.6c-.1.8.2 1.6.7 2.2.7.5 1.5.7 2.4.6zm39.2-22.3h6.1l-8 26.9h-6.2l-5.1-19.1h-.1l-5.1 19.1H447l-8-26.9h6.1l5.2 19.1h.1l5.2-19.1h5.5l5.1 19.1h.1l5.3-19.1zm21.4-.6c-4.2 0-7.4 1.2-9.5 3.6-2.1 2.4-3.2 5.9-3.2 10.4 0 4.6 1.1 8 3.2 10.4 2.1 2.5 5.3 3.7 9.5 3.7s7.3-1.2 9.5-3.7 3.2-5.9 3.2-10.4c0-4.6-1.1-8-3.2-10.4-2.1-2.4-5.4-3.6-9.5-3.6zm6.7 14.2c0 6.1-2.3 9.1-6.7 9.1s-6.7-3.1-6.7-9.1c0-6.1 2.2-9 6.7-9 4.5-.1 6.7 2.9 6.7 9zm26.4-14.1v5.9c-3.2 0-5.3.6-6.8 1.9s-2 3.4-2 6.5v13.2h-6v-26.9h5.9v5h.1c.5-1.6 1.5-3.1 2.9-4.1 1.5-1.2 3.4-1.7 5.9-1.5zm17.8 11l11.1 16.5h-6.3l-8.8-12.6-3.1 3v9.6h-6v-36.8h6v20.1l10.6-10.2h7.2l-10.7 10.4zm51.5-2.4c1.6-.4 2.9-1.4 3.8-2.7 1-1.6 1.5-3.4 1.5-5.3v-.2c0-3.3-1.1-5.8-3.1-7.4s-5.3-2.4-9.6-2.4h-13.2V514h13.4c8.9 0 13.2-3.6 13.2-10.6v-.2c.1-1.9-.5-3.8-1.7-5.3-.9-1.3-2.5-2.3-4.3-2.7zm-14.3-12.5h6.9c1.7-.1 3.3.2 4.8 1.1 1 .6 1.5 1.8 1.5 3.6 0 3.5-1.9 5.2-5.8 5.2H581v-9.9zm14.1 20.5c0 3.6-2.3 5.4-6.8 5.4h-7.3v-10.9h7.5c1.7-.1 3.4.3 4.9 1.2 1.2 1 1.8 2.5 1.7 4v.3zm28.9-16.1h6V514h-5.8l-.2-4.1h-.1c-.7 1.4-1.7 2.6-3.1 3.4-1.6.9-3.4 1.4-5.2 1.3-3 0-5.2-.8-6.6-2.5-1.4-1.7-2.1-4.1-2.1-7.5v-17.5h5.9v17.5c0 1.8.4 3 1.1 3.7.9.9 2.1 1.3 3.3 1.2 1.9.1 3.8-.7 5.1-2.1 1.2-1.4 1.7-3.2 1.7-5v-15.3zm34.5 19.3v.2c0 5.4-3.7 8.2-11.2 8.2s-11.8-3-11.8-8.9h5.8c.1 1.2.7 2.4 1.8 3.1 1.4.7 2.9 1 4.5 1 3.6 0 5.3-1.1 5.3-3.4 0-.9-.4-1.8-1.2-2.3-1.1-.7-2.3-1.1-3.6-1.1l-2.6-.4c-3.1-.4-5.3-1.1-6.9-2.4-1.6-1.2-2.3-3.2-2.3-5.8-.1-2.3.9-4.5 2.7-5.9 1.8-1.3 4.6-2 8.2-2 6.9 0 10.6 2.7 11 8.2h-5.7c0-1.1-.5-2.1-1.4-2.6-1.2-.6-2.5-.9-3.9-.8-3.4 0-5.2 1-5.2 3.1 0 .9.4 1.8 1.2 2.3 1.2.6 2.4 1 3.8 1.1l2.5.4c3.2.4 5.5 1.3 7 2.5 1.3 1.1 2 2.9 2 5.5zm5.8-29.2h6.1v6h-6.1v-6zm0 9.9h6V514h-6v-26.9zm34 1.8c1.4 1.6 2.1 4.2 2.1 7.6V514h-6v-17.5c.1-1.3-.2-2.6-1-3.7-.7-.8-1.8-1.1-3.3-1.1-1.9-.1-3.9.6-5.3 1.9-1.2 1.4-1.8 3.2-1.8 5.1V514h-5.9v-26.9h5.7l.2 4.1h.1c.7-1.4 1.8-2.5 3.2-3.3 1.6-1 3.5-1.5 5.4-1.4 3.1 0 5.3.8 6.6 2.4zm20.3-2.4c-4.2 0-7.3 1.2-9.5 3.7-2.2 2.4-3.2 5.9-3.2 10.3 0 4.7 1.1 8.2 3.3 10.5s5.8 3.6 10.7 3.6c3.1 0 6.1-.6 8.9-1.8v-4.7c-2.7 1.1-5.7 1.6-8.6 1.7-3 0-5.1-.5-6.5-1.7s-2.1-3-2.2-5.4H730c.2-1.2.3-2.3.3-3.5 0-8.5-3.9-12.7-11.6-12.7zm-7 12c.2-2.5.9-4.4 1.9-5.5 1.1-1.1 2.8-1.8 5-1.8s3.9.5 4.7 1.8 1.3 3 1.4 5.5h-13zm45.8 7.9v.2c0 5.4-3.7 8.2-11.2 8.2-7.5 0-11.8-3-11.8-8.9h5.8c.1 1.2.7 2.4 1.8 3.1 1.4.7 2.9 1 4.5 1 3.6 0 5.3-1.1 5.3-3.4 0-.9-.4-1.8-1.2-2.3-1.1-.7-2.3-1.1-3.6-1.1l-2.6-.4c-3.1-.4-5.3-1.1-6.9-2.4-1.6-1.2-2.3-3.2-2.3-5.8-.1-2.3.9-4.5 2.7-5.9 1.8-1.3 4.6-2 8.2-2 6.9 0 10.6 2.7 11 8.2h-5.7c0-1.1-.5-2.1-1.4-2.6-1.2-.6-2.5-.9-3.9-.8-3.4 0-5.2 1-5.2 3.1 0 .9.4 1.8 1.2 2.3 1.2.7 2.4 1 3.8 1.1l2.5.4c3.2.4 5.5 1.3 7 2.5 1.3 1.1 2 2.9 2 5.5zm27.2 0v.2c0 5.4-3.8 8.2-11.2 8.2-7.5 0-11.8-3-11.9-8.9h5.8c.1 1.3.8 2.4 1.8 3.1 1.4.7 2.9 1 4.4 1 3.6 0 5.3-1.1 5.3-3.4.1-.9-.4-1.8-1.1-2.3-1.1-.7-2.4-1.1-3.7-1.1l-2.5-.4c-3.2-.4-5.4-1.1-7-2.4s-2.3-3.2-2.3-5.8c-.1-2.3.9-4.5 2.7-5.9 1.8-1.3 4.6-2 8.2-2 7 0 10.7 2.7 11 8.2h-5.8c0-1.1-.5-2.1-1.4-2.6-1.2-.6-2.5-.9-3.9-.8-3.4 0-5.1 1-5.1 3.1-.1.9.4 1.8 1.1 2.3 1.2.7 2.5 1 3.9 1.1l2.5.4c3.2.4 5.5 1.3 7 2.5 1.5 1.1 2.2 2.9 2.2 5.5z"/>
</svg>
