<svg width="100" height="100" viewBox="0 0 100 100" xmlns="http://www.w3.org/2000/svg"><title>twitter</title><path d="M50 0C22.386 0 0 22.386 0 50s22.385 50 50 50c27.614 0 50-22.386 50-50S77.614 0 50 0zm29.758 31.748c-2.198.975-4.56 1.634-7.04 1.93 2.53-1.517 4.473-3.92 5.39-6.78-2.37 1.404-4.993 2.423-7.787 2.973C68.087 27.49 64.9 26 61.375 26c-6.77 0-12.26 5.488-12.26 12.26 0 .96.108 1.896.318 2.793-10.19-.51-19.222-5.393-25.27-12.81-1.054 1.81-1.658 3.916-1.658 6.163 0 4.254 2.163 8.006 5.453 10.205-2.01-.062-3.9-.613-5.553-1.532v.154c0 5.94 4.225 10.894 9.833 12.02-1.028.28-2.11.43-3.23.43-.79 0-1.557-.075-2.306-.22 1.562 4.87 6.088 8.416 11.454 8.515-4.2 3.29-9.485 5.248-15.23 5.248-.988 0-1.964-.058-2.924-.17 5.428 3.477 11.87 5.506 18.795 5.506 22.55 0 34.878-18.68 34.878-34.88 0-.532-.012-1.06-.035-1.585 2.395-1.73 4.473-3.888 6.117-6.347h.003z" fill-rule="evenodd"/></svg>
